<svg xmlns="http://www.w3.org/2000/svg" width="1920" height="1080">
  <path fill="#adb2b5" d="M1098.105 717.608c-7.043-8.88-16.842-13.474-28.478-13.474h-37.971v90.641h37.665c11.942 0 21.435-4.593 28.478-13.474 7.35-9.186 11.024-19.904 11.024-31.846.306-12.25-3.369-22.66-10.718-31.847zm-9.799 31.54c0 16.536-7.35 24.804-21.741 24.804h-14.087v-48.995h14.087c14.392 0 21.741 7.962 21.741 24.191z"/>
  <path fill="#bc4041" d="M1203.751 677.799h-10.718V402.201h-86.354v94.928L985.722 284h120.957v94.622h86.354V284h10.718zm-304.383-134.43c0 11.942-4.287 22.047-13.167 30.621-8.574 8.575-18.68 12.555-30.622 12.555-11.636 0-21.742-3.98-30.622-12.555-8.574-8.268-12.555-18.679-12.555-30.622V284h86.66v259.368zm207.311 134.43H873.646c37.359-7.962 66.143-24.191 85.742-48.383 17.454-21.435 26.028-46.239 26.028-74.717v-90.03zm-268.248 0H716.249V284h10.105v271.005c0 28.478 8.574 53.282 26.029 74.717 19.904 23.886 48.383 40.115 86.048 48.077z"/>
  <path fill="#adb2b5" d="M816.689 704.134h20.823v22.66h-20.823z"/>
  <path fill="#adb2b5" d="M837.512 794.775h-20.823l-31.847-47.464v18.373c0 8.574-3.675 15.617-10.718 21.742-6.736 5.818-14.392 8.574-22.66 8.574-8.574 0-16.23-2.756-23.273-8.574-6.736-6.125-10.105-13.474-10.105-21.742v-61.55h20.823v58.488c0 8.574 3.981 12.555 12.555 12.555 8.268 0 12.555-3.98 12.555-12.555v-58.488h20.823l31.847 47.464v-20.517h20.823zm176.383-78.698c-9.187-9.187-19.905-14.087-32.46-14.087-12.86 0-24.191 4.594-33.378 14.087-9.186 9.186-13.473 20.21-13.473 33.071 0 12.862 4.593 24.192 13.473 33.378 9.187 9.187 20.517 13.474 33.378 13.474 12.555 0 23.273-4.593 32.46-13.474 9.186-9.186 14.086-20.516 14.086-33.378-.306-12.86-4.9-23.885-14.086-33.071zm-14.699 51.445c-5.206 5.205-11.024 7.655-18.067 7.655-7.043 0-13.473-2.45-18.373-7.655-5.206-5.206-7.656-11.33-7.656-18.374 0-6.737 2.45-12.86 7.656-18.067 5.206-5.512 11.33-8.268 18.373-8.268 6.737 0 12.861 2.756 18.067 8.268 5.206 5.206 7.656 11.024 7.656 18.067 0 7.043-2.45 13.474-7.656 18.374zm-67.368-5.819C925.09 784.67 909.78 796 886.2 796c-12.555 0-23.579-4.593-33.072-13.474-9.186-9.186-13.474-20.516-13.474-33.378 0-12.86 4.594-23.885 13.474-33.071 9.187-9.187 20.21-14.087 33.072-14.087 24.498 0 39.809 11.943 45.627 35.828h-21.436c-5.205-9.799-13.473-15.005-24.191-15.005-6.737 0-12.861 2.756-18.067 8.268-5.206 5.206-7.656 11.024-7.656 18.067 0 7.043 2.45 13.474 7.656 18.374 5.206 5.205 11.024 7.655 18.067 7.655 10.718 0 18.373-4.593 23.273-13.474zm226.296 13.474c-5.818 0-11.636-2.144-16.842-6.737l62.47-29.703c-5.206-24.498-20.211-36.747-45.628-36.747-12.86 0-24.191 4.594-33.378 14.087-9.186 9.186-13.473 20.21-13.473 33.071 0 12.862 4.593 24.192 13.473 33.378 9.187 9.187 20.517 13.474 33.378 13.474 24.192 0 39.503-11.33 45.627-34.297h-22.354c-5.206 9.187-12.861 13.474-23.273 13.474zm-26.028-25.11c0-18.067 8.574-27.254 26.028-27.254 6.125 0 11.637 2.45 16.843 6.737z"/>
</svg>
