<?xml version="1.0" encoding="UTF-8"?>
<!DOCTYPE svg PUBLIC "-//W3C//DTD SVG 1.1//EN" "http://www.w3.org/Graphics/SVG/1.1/DTD/svg11.dtd">
<svg width="400pt" height="400pt" viewBox="0 0 400 400" version="1.1" xmlns="http://www.w3.org/2000/svg">
<g id="#5d2e1fff">
<path fill="#5d2e1f" opacity="1.00" d=" M 67.46 25.60 C 72.60 24.83 77.81 25.01 82.98 25.00 C 158.32 25.00 233.65 25.00 308.98 25.00 C 316.83 25.16 324.73 24.55 332.54 25.60 C 348.49 27.90 362.93 38.55 369.90 53.06 C 373.27 59.83 374.98 67.40 375.00 74.96 C 375.01 156.32 375.00 237.68 375.00 319.04 C 375.03 324.38 375.14 329.78 373.98 335.03 C 370.81 351.02 359.25 365.09 344.11 371.17 C 337.78 373.91 330.85 375.00 323.98 375.00 C 240.98 374.99 157.98 375.02 74.98 374.99 C 62.36 374.98 49.77 370.08 40.66 361.30 C 30.76 352.04 24.94 338.61 25.00 325.05 C 25.00 241.71 25.00 158.37 25.00 75.03 C 24.96 62.88 29.55 50.79 37.69 41.77 C 45.34 33.16 56.05 27.28 67.46 25.60 M 183.53 77.82 C 145.10 82.08 109.42 105.52 90.37 139.18 C 77.11 162.22 71.56 189.63 75.01 216.00 C 78.30 242.22 90.24 267.35 108.77 286.22 C 133.59 312.20 170.23 326.38 206.08 323.67 C 244.35 321.19 280.68 299.61 301.30 267.31 C 315.83 244.86 322.75 217.59 320.60 190.93 C 318.71 166.38 309.27 142.45 293.78 123.30 C 267.93 90.71 224.89 72.75 183.53 77.82 Z"/>
<path fill="#5d2e1f" opacity="1.00" d=" M 182.54 91.84 C 217.42 86.64 254.26 99.96 278.00 125.98 C 296.09 145.34 306.85 171.47 307.23 198.00 C 307.77 218.02 302.64 238.16 292.50 255.44 C 279.58 277.81 258.54 295.49 234.08 303.93 C 200.17 316.29 160.36 310.15 131.66 288.30 C 110.94 272.78 95.95 249.77 90.33 224.47 C 85.40 202.01 87.45 177.96 96.76 156.88 C 111.54 122.31 145.16 96.52 182.54 91.84 M 119.98 160.92 C 122.84 166.50 125.25 172.30 128.08 177.89 C 128.13 174.08 128.11 170.27 128.21 166.45 C 138.25 161.92 148.41 157.65 158.56 153.38 C 161.65 155.47 164.71 157.62 167.88 159.60 C 168.00 154.29 167.98 148.99 167.92 143.68 C 176.10 139.73 184.40 135.99 192.48 131.83 C 168.32 141.54 144.00 150.88 119.98 160.92 M 175.14 145.46 C 182.72 149.92 190.50 154.05 198.11 158.48 C 207.66 153.73 217.30 149.15 226.82 144.34 C 218.58 140.76 210.30 137.25 202.08 133.62 C 193.14 137.65 184.12 141.51 175.14 145.46 M 235.36 143.88 C 235.33 147.44 235.34 151.01 235.35 154.57 C 245.33 160.76 255.39 166.82 265.26 173.17 C 265.45 175.55 265.61 177.95 265.76 180.34 C 270.49 175.51 275.16 170.63 279.91 165.83 C 265.06 158.53 250.28 151.06 235.36 143.88 M 200.41 161.29 C 200.39 165.99 200.41 170.69 200.40 175.39 C 210.17 170.28 219.96 165.20 229.74 160.12 C 229.70 155.80 229.74 151.48 229.71 147.16 C 219.98 151.94 210.16 156.54 200.41 161.29 M 172.21 149.42 C 172.44 153.94 172.59 158.46 172.82 162.99 C 180.32 167.51 187.89 171.91 195.31 176.56 C 195.54 171.66 195.66 166.75 195.91 161.86 C 188.02 157.68 180.10 153.59 172.21 149.42 M 131.12 169.09 C 141.95 176.93 152.94 184.54 163.83 192.30 C 173.36 188.09 182.93 183.97 192.53 179.92 C 181.36 172.67 169.97 165.76 158.85 158.44 C 149.58 161.92 140.41 165.66 131.12 169.09 M 202.13 178.84 C 210.23 182.05 218.24 185.51 226.28 188.88 C 236.64 184.27 246.91 179.43 257.30 174.87 C 250.25 170.41 243.04 166.22 235.94 161.84 C 224.67 167.52 213.32 173.02 202.13 178.84 M 131.70 174.16 C 131.89 176.26 131.17 178.69 132.02 180.62 C 141.34 188.99 151.04 196.94 160.38 205.29 C 160.40 201.88 160.40 198.48 160.38 195.07 C 150.83 188.08 141.16 181.26 131.70 174.16 M 228.12 192.20 C 228.21 196.37 228.43 200.54 228.60 204.71 C 238.66 200.70 248.76 196.78 258.88 192.93 C 259.44 187.45 259.35 181.93 259.57 176.42 C 249.14 181.79 238.62 186.97 228.12 192.20 M 104.57 198.93 C 118.50 210.64 132.42 222.36 146.60 233.75 C 155.87 230.28 165.16 226.88 174.44 223.44 C 158.00 209.56 141.79 195.41 125.28 181.62 C 118.44 187.46 111.41 193.08 104.57 198.93 M 164.37 196.19 C 164.32 199.77 164.33 203.34 164.35 206.92 C 174.68 202.74 185.07 198.70 195.37 194.45 C 195.25 190.70 194.93 186.97 194.75 183.23 C 184.65 187.61 174.50 191.88 164.37 196.19 M 200.92 182.14 C 200.75 186.24 200.61 190.34 200.36 194.43 C 208.41 198.15 216.59 201.56 224.64 205.27 C 224.15 200.96 224.90 196.28 223.67 192.19 C 216.18 188.66 208.51 185.47 200.92 182.14 M 188.20 224.62 C 193.49 233.32 198.59 242.14 203.81 250.88 C 225.95 241.26 248.14 231.73 270.29 222.12 C 268.20 213.31 266.57 204.40 264.54 195.57 C 239.25 205.66 213.44 214.44 188.20 224.62 M 166.65 210.19 C 171.66 214.54 176.94 218.55 182.05 222.78 C 194.25 217.61 206.62 212.81 218.77 207.54 C 218.81 207.32 218.87 206.87 218.90 206.64 C 212.00 203.48 205.03 200.47 198.12 197.31 C 187.66 201.66 177.20 206.03 166.65 210.19 M 144.63 239.14 C 140.61 235.46 136.20 232.26 132.01 228.79 C 131.93 237.84 131.85 246.88 131.78 255.93 C 148.23 267.63 164.60 279.46 181.28 290.83 C 181.07 269.70 181.17 248.57 181.13 227.44 C 168.80 230.82 156.93 235.69 144.63 239.14 M 199.18 257.58 C 195.52 251.34 191.78 245.14 187.92 239.02 C 188.26 256.67 187.98 274.31 188.07 291.96 C 212.86 281.69 237.60 271.32 262.38 261.03 C 262.39 251.44 261.94 241.85 261.84 232.26 C 240.95 240.69 220.13 249.30 199.18 257.58 Z"/>
</g>
<g id="#ffffffff">
<path fill="#ffffff" opacity="1.00" d=" M 183.53 77.82 C 224.89 72.75 267.93 90.71 293.78 123.30 C 309.27 142.45 318.71 166.38 320.60 190.93 C 322.75 217.59 315.83 244.86 301.30 267.31 C 280.68 299.61 244.35 321.19 206.08 323.67 C 170.23 326.38 133.59 312.20 108.77 286.22 C 90.24 267.35 78.30 242.22 75.01 216.00 C 71.56 189.63 77.11 162.22 90.37 139.18 C 109.42 105.52 145.10 82.08 183.53 77.82 M 182.54 91.84 C 145.16 96.52 111.54 122.31 96.76 156.88 C 87.45 177.96 85.40 202.01 90.33 224.47 C 95.95 249.77 110.94 272.78 131.66 288.30 C 160.36 310.15 200.17 316.29 234.08 303.93 C 258.54 295.49 279.58 277.81 292.50 255.44 C 302.64 238.16 307.77 218.02 307.23 198.00 C 306.85 171.47 296.09 145.34 278.00 125.98 C 254.26 99.96 217.42 86.64 182.54 91.84 Z"/>
<path fill="#ffffff" opacity="1.00" d=" M 119.98 160.92 C 144.00 150.88 168.32 141.54 192.48 131.83 C 184.40 135.99 176.10 139.73 167.92 143.68 C 167.98 148.99 168.00 154.29 167.88 159.60 C 164.71 157.62 161.65 155.47 158.56 153.38 C 148.41 157.65 138.25 161.92 128.21 166.45 C 128.11 170.27 128.13 174.08 128.08 177.89 C 125.25 172.30 122.84 166.50 119.98 160.92 Z"/>
<path fill="#ffffff" opacity="1.00" d=" M 175.14 145.46 C 184.12 141.51 193.14 137.65 202.08 133.62 C 210.30 137.25 218.58 140.76 226.82 144.34 C 217.30 149.15 207.66 153.73 198.11 158.48 C 190.50 154.05 182.72 149.92 175.14 145.46 Z"/>
<path fill="#ffffff" opacity="1.00" d=" M 235.36 143.88 C 250.28 151.06 265.06 158.53 279.91 165.83 C 275.16 170.63 270.49 175.51 265.76 180.34 C 265.61 177.95 265.45 175.55 265.26 173.17 C 255.39 166.82 245.33 160.76 235.35 154.57 C 235.34 151.01 235.33 147.44 235.36 143.88 Z"/>
<path fill="#ffffff" opacity="1.00" d=" M 200.41 161.29 C 210.16 156.54 219.98 151.94 229.71 147.16 C 229.74 151.48 229.70 155.80 229.74 160.12 C 219.96 165.20 210.17 170.28 200.40 175.39 C 200.41 170.69 200.39 165.99 200.41 161.29 Z"/>
<path fill="#ffffff" opacity="1.00" d=" M 172.21 149.42 C 180.10 153.59 188.02 157.68 195.91 161.86 C 195.66 166.75 195.54 171.66 195.31 176.56 C 187.89 171.91 180.32 167.51 172.82 162.99 C 172.59 158.46 172.44 153.94 172.21 149.42 Z"/>
<path fill="#ffffff" opacity="1.00" d=" M 131.12 169.09 C 140.41 165.66 149.58 161.92 158.85 158.44 C 169.97 165.76 181.36 172.67 192.53 179.92 C 182.93 183.97 173.36 188.09 163.83 192.30 C 152.94 184.54 141.95 176.93 131.12 169.09 Z"/>
<path fill="#ffffff" opacity="1.00" d=" M 202.13 178.84 C 213.32 173.02 224.67 167.52 235.94 161.84 C 243.04 166.22 250.25 170.41 257.30 174.87 C 246.91 179.43 236.64 184.27 226.28 188.88 C 218.24 185.51 210.23 182.05 202.13 178.84 Z"/>
<path fill="#ffffff" opacity="1.00" d=" M 131.70 174.16 C 141.16 181.26 150.83 188.08 160.38 195.07 C 160.40 198.48 160.40 201.88 160.38 205.29 C 151.04 196.94 141.34 188.99 132.02 180.62 C 131.17 178.69 131.89 176.26 131.70 174.16 Z"/>
<path fill="#ffffff" opacity="1.00" d=" M 228.12 192.20 C 238.62 186.97 249.14 181.79 259.57 176.42 C 259.35 181.93 259.44 187.45 258.88 192.93 C 248.76 196.78 238.66 200.70 228.60 204.71 C 228.43 200.54 228.21 196.37 228.12 192.20 Z"/>
<path fill="#ffffff" opacity="1.00" d=" M 104.57 198.93 C 111.41 193.08 118.44 187.46 125.28 181.62 C 141.79 195.41 158.00 209.56 174.44 223.44 C 165.16 226.88 155.87 230.28 146.60 233.75 C 132.42 222.36 118.50 210.64 104.57 198.93 Z"/>
<path fill="#ffffff" opacity="1.00" d=" M 164.37 196.19 C 174.50 191.88 184.65 187.61 194.75 183.23 C 194.93 186.97 195.25 190.70 195.37 194.45 C 185.07 198.70 174.68 202.74 164.35 206.92 C 164.33 203.34 164.32 199.77 164.37 196.19 Z"/>
<path fill="#ffffff" opacity="1.00" d=" M 200.92 182.14 C 208.51 185.47 216.18 188.66 223.67 192.19 C 224.90 196.28 224.15 200.96 224.64 205.27 C 216.59 201.56 208.41 198.15 200.36 194.43 C 200.61 190.34 200.75 186.24 200.92 182.14 Z"/>
<path fill="#ffffff" opacity="1.00" d=" M 188.20 224.62 C 213.44 214.44 239.25 205.66 264.54 195.57 C 266.57 204.40 268.20 213.31 270.29 222.12 C 248.14 231.73 225.95 241.26 203.81 250.88 C 198.59 242.14 193.49 233.32 188.20 224.62 Z"/>
<path fill="#ffffff" opacity="1.00" d=" M 166.65 210.19 C 177.20 206.03 187.66 201.66 198.12 197.31 C 205.03 200.47 212.00 203.48 218.90 206.64 C 218.87 206.87 218.81 207.32 218.77 207.54 C 206.62 212.81 194.25 217.61 182.05 222.78 C 176.94 218.55 171.66 214.54 166.65 210.19 Z"/>
<path fill="#ffffff" opacity="1.00" d=" M 144.63 239.14 C 156.93 235.69 168.80 230.82 181.13 227.44 C 181.17 248.57 181.07 269.70 181.28 290.83 C 164.60 279.46 148.23 267.63 131.78 255.93 C 131.85 246.88 131.93 237.84 132.01 228.79 C 136.20 232.26 140.61 235.46 144.63 239.14 Z"/>
<path fill="#ffffff" opacity="1.00" d=" M 199.18 257.58 C 220.13 249.30 240.95 240.69 261.84 232.26 C 261.94 241.85 262.39 251.44 262.38 261.03 C 237.60 271.32 212.86 281.69 188.07 291.96 C 187.98 274.31 188.26 256.67 187.92 239.02 C 191.78 245.14 195.52 251.34 199.18 257.58 Z"/>
</g>
</svg>