<?xml version="1.0" encoding="UTF-8" standalone="no"?>
<!-- Created with Inkscape (http://www.inkscape.org/) -->

<svg
   xmlns:dc="http://purl.org/dc/elements/1.1/"
   xmlns:cc="http://creativecommons.org/ns#"
   xmlns:rdf="http://www.w3.org/1999/02/22-rdf-syntax-ns#"
   xmlns:svg="http://www.w3.org/2000/svg"
   xmlns="http://www.w3.org/2000/svg"
   xmlns:sodipodi="http://sodipodi.sourceforge.net/DTD/sodipodi-0.dtd"
   xmlns:inkscape="http://www.inkscape.org/namespaces/inkscape"
   width="256"
   height="256"
   viewBox="0 0 256 256"
   id="svg3357"
   version="1.1"
   inkscape:version="0.91 r13725"
   sodipodi:docname="protoss.svg">
  <defs
     id="defs3359" />
  <sodipodi:namedview
     id="base"
     pagecolor="#ffffff"
     bordercolor="#666666"
     borderopacity="1.0"
     inkscape:pageopacity="0.0"
     inkscape:pageshadow="2"
     inkscape:zoom="0.98994949"
     inkscape:cx="29.835842"
     inkscape:cy="218.54902"
     inkscape:document-units="px"
     inkscape:current-layer="layer1"
     showgrid="false"
     inkscape:window-width="1366"
     inkscape:window-height="705"
     inkscape:window-x="-8"
     inkscape:window-y="-8"
     inkscape:window-maximized="1"
     units="px" />
  <metadata
     id="metadata3362">
    <rdf:RDF>
      <cc:Work
         rdf:about="">
        <dc:format>image/svg+xml</dc:format>
        <dc:type
           rdf:resource="http://purl.org/dc/dcmitype/StillImage" />
        <dc:title></dc:title>
      </cc:Work>
    </rdf:RDF>
  </metadata>
  <g
     inkscape:label="Layer 1"
     inkscape:groupmode="layer"
     id="layer1"
     transform="translate(0,-796.36218)">
    <path
       style="opacity:1;fill:#bbbb40;fill-opacity:1"
       d="m 75.951204,1048.539 c -9.49538,-15.3067 -13.999075,-33.4428 -12.803538,-51.41109 -0.565167,-14.57897 5.323701,-28.90832 14.374249,-40.11772 5.827023,7.86598 18.261718,12.47957 25.661295,3.70082 9.21774,-13.83286 4.73987,-34.686 -9.555174,-43.41549 -3.78853,-5.85066 -14.986774,-2.46246 -16.875801,-5.5285 0.124185,-38.46303 -0.105065,-76.9317 0.433996,-115.3899 3.381322,21.43713 12.261151,42.1116 27.124269,58.10348 4.29737,4.95297 12.13163,12.75675 13.11512,17.56727 -5.85447,-5.53068 -16.99234,-5.4529 -18.849353,3.91605 -3.482031,13.07432 3.471393,28.66132 15.798903,34.32877 11.7578,3.86717 16.52523,-11.73726 12.38955,-20.37387 -2.09925,-4.78116 -4.62335,-12.06811 3.61528,-7.83876 12.45066,6.88156 19.60576,21.94388 19.15326,35.87514 -3.48201,-3.0238 -12.79045,-3.86217 -12.28853,4.82775 1.0109,12.17319 19.54097,12.37831 26.6191,5.14527 9.18918,-8.68169 14.31077,-21.4998 13.0345,-34.1535 0.26462,-11.84355 -5.47818,-22.40083 -10.94822,-32.42777 13.85033,9.44037 23.74008,25.06295 26.45357,41.60772 1.73172,15.07111 -0.53828,30.5202 -7.53379,44.06716 -11.67835,26.36851 -28.1821,51.99206 -53.51513,67.04727 -3.96568,1.9204 -14.59437,10.4311 -15.21447,8.3302 8.09038,-9.4553 13.44274,-24.52381 5.57655,-35.65046 -8.57132,-8.4976 -20.13727,1.19181 -25.92766,8.28943 -12.020048,13.59223 -18.791636,31.79513 -17.379066,49.98283 -0.116626,3.5709 0.876052,10.8964 -2.45891,3.5179 z m 6.210277,-98.2331 c -11.162646,-5.4796 -5.172698,-24.46349 7.212544,-21.90535 12.486635,0.63907 13.212175,20.92009 1.20182,22.72159 -2.793109,0.45303 -5.802076,0.36863 -8.414364,-0.81624 z"
       id="path3346"
       inkscape:connector-curvature="0" />
  </g>
</svg>
