<?xml version="1.0" encoding="UTF-8" standalone="no"?>
<!-- Created with Inkscape (http://www.inkscape.org/) -->

<svg
   xmlns:dc="http://purl.org/dc/elements/1.1/"
   xmlns:cc="http://creativecommons.org/ns#"
   xmlns:rdf="http://www.w3.org/1999/02/22-rdf-syntax-ns#"
   xmlns:svg="http://www.w3.org/2000/svg"
   xmlns="http://www.w3.org/2000/svg"
   xmlns:sodipodi="http://sodipodi.sourceforge.net/DTD/sodipodi-0.dtd"
   xmlns:inkscape="http://www.inkscape.org/namespaces/inkscape"
   width="256"
   height="256"
   viewBox="0 0 256 256"
   id="svg3357"
   version="1.1"
   inkscape:version="0.91 r13725"
   sodipodi:docname="terran.svg">
  <defs
     id="defs3359" />
  <sodipodi:namedview
     id="base"
     pagecolor="#ffffff"
     bordercolor="#666666"
     borderopacity="1.0"
     inkscape:pageopacity="0.0"
     inkscape:pageshadow="2"
     inkscape:zoom="0.98994949"
     inkscape:cx="244.15744"
     inkscape:cy="34.444498"
     inkscape:document-units="px"
     inkscape:current-layer="layer1"
     showgrid="false"
     inkscape:window-width="1366"
     inkscape:window-height="705"
     inkscape:window-x="-8"
     inkscape:window-y="-8"
     inkscape:window-maximized="1"
     units="px" />
  <metadata
     id="metadata3362">
    <rdf:RDF>
      <cc:Work
         rdf:about="">
        <dc:format>image/svg+xml</dc:format>
        <dc:type
           rdf:resource="http://purl.org/dc/dcmitype/StillImage" />
        <dc:title></dc:title>
      </cc:Work>
    </rdf:RDF>
  </metadata>
  <g
     inkscape:label="Layer 1"
     inkscape:groupmode="layer"
     id="layer1"
     transform="translate(0,-796.36218)">
    <path
       style="fill:#111160;fill-opacity:1"
       d="m 0.001875,1048.8532 c 15.667915,-30.8074 31.388766,-61.60154 47.52364,-92.16614 8.378484,3.5595 20.511521,10.2384 10.699723,19.7617 -8.542452,17.1869 -17.761114,34.04184 -25.979678,51.38564 10.943029,1.4508 22.092875,0.6041 33.129522,0.8315 -3.418084,6.8667 -6.83615,13.7334 -10.254199,20.6001 -18.370658,-0.1079 -36.762561,0.3006 -55.119008,-0.4128 z m 195.708725,-9.4245 c -2.86017,-5.3913 -8.35616,-13.1963 2.19056,-10.6835 6.7167,-1.8422 24.29719,3.7044 23.98752,-3.669 -9.35739,-19.6687 -20.6939,-38.47804 -29.02809,-58.57624 6.30075,-5.0496 16.72598,-16.54 19.28963,-2.0912 14.80185,27.8749 29.71579,55.70324 43.84791,83.92364 -18.33385,1.7442 -36.91254,0.6157 -55.35391,0.9336 -1.64454,-3.2791 -3.28908,-6.5582 -4.93362,-9.8373 z m -125.847406,5.8692 c 9.806879,-22.56 20.53816,-44.7553 29.384945,-67.71704 -5.556133,-3.2952 -8.105921,16.4196 -14.33397,9.1826 5.362269,-15.276 -16.568624,-7.693 -13.822087,3.5985 -4.20505,-5.3584 -6.034825,-16.4522 2.899531,-19.9197 8.631828,-2.0624 19.66499,-4.3882 18.272834,-13.3869 9.756423,-6.2503 8.207373,-27.4782 -5.451584,-17.1578 -7.056282,2.594 -6.604882,20.37 -12.938937,17.295 -4.475087,-4.7888 -18.799317,-8.3808 -11.78266,-15.4194 9.195646,-6.1795 13.383915,-29.6855 -3.58633,-24.0695 -12.290014,3.4082 -19.554382,14.9532 -23.529888,26.3225 -0.01412,-12.3182 -0.02828,-24.6363 -0.0425,-36.9545 10.024195,0.9328 21.381184,-5.9067 18.560487,-17.3489 -2.691515,-16.57846 -24.266924,-6.4657 -29.328175,-3.80083 3.340617,-8.38893 7.298543,-16.51265 11.001893,-24.74411 23.596942,0.25597 47.239,-0.4549 70.800207,0.69413 -8.169488,4.22666 -21.915234,11.55866 -20.707612,23.60194 2.866511,1.32136 20.188672,-11.99459 11.195645,0.24852 -4.585876,4.71747 9.863907,-2.3805 2.344574,6.45145 -1.937773,15.5767 26.294663,2.0989 11.241103,-2.05053 -8.91284,8.39143 -4.52528,-13.47485 4.44154,-11.99664 12.68011,-7.78059 29.32231,-2.12798 28.00862,14.47387 4.7145,12.9361 16.6936,2.1882 11.25083,-5.56479 8.60098,1.93616 -6.42485,-12.5091 5.70975,-5.13201 7.28273,7.78893 12.10433,1.25516 6.19754,-5.92928 -2.31108,-6.98164 -17.1452,-12.03857 -17.47875,-14.32335 23.35792,-0.71832 46.73926,-0.30959 70.10767,-0.4735 3.70844,8.83386 8.78456,17.71103 11.44817,26.54668 -8.25968,-9.93505 -31.36617,-11.30188 -29.935,6.15475 -2.04503,12.7137 14.84953,10.1841 17.85057,15.3453 -0.0262,11.0034 -0.0525,22.0069 -0.0787,33.0103 -3.91303,-12.6809 -14.33082,-24.7751 -28.33321,-25.4997 -15.13779,5.96 0.18802,21.397 4.17746,29.4934 -4.52713,5.2474 -10.98784,8.4542 -16.44106,12.7106 -3.20504,-8.9814 -8.38238,-24.2523 -20.16219,-21.0849 -9.42977,8.6862 8.04115,18.3295 5.77449,26.068 7.62053,5.9889 26.11917,4.5166 23.05384,19.0309 -1.93221,6.8324 -4.07125,9.3459 -4.63654,0.9035 -3.14754,-9.8405 -18.44821,-6.6402 -13.01733,4.0722 -7.09964,3.4395 -9.62906,-15.6907 -13.50575,-9.3824 8.80745,22.30734 19.09601,43.99254 28.80842,65.91284 -11.38079,-2.9547 -23.26977,-9.0005 -35.49759,-5.4805 -13.75069,7.7239 -13.44196,-14.5691 -19.84413,-22.0777 -3.97326,-3.8521 -7.3204,13.9743 -11.02444,18.3637 -4.01141,12.1772 -20.079751,-2.5637 -29.821648,4.1031 -6.090535,0.9282 -11.58805,3.7544 -17.230058,5.9302 z M 102.10688,849.857 c 8.22924,-17.0333 16.88623,-33.8823 25.98165,-50.46903 8.92509,16.27119 17.17639,32.97582 24.66333,49.95672 -6.6331,1.08263 -13.40395,0.92288 -20.10584,1.31174 -2.31762,-7.94502 -6.58404,-9.03696 -8.93787,-0.39571 -6.93699,0.27128 -14.58408,0.41582 -21.60128,-0.40372 z"
       id="path3346-2"
       inkscape:connector-curvature="0" />
  </g>
</svg>
