<?xml version="1.0" encoding="UTF-8" standalone="no"?>
<!-- Created with Inkscape (http://www.inkscape.org/) -->

<svg
   xmlns:dc="http://purl.org/dc/elements/1.1/"
   xmlns:cc="http://creativecommons.org/ns#"
   xmlns:rdf="http://www.w3.org/1999/02/22-rdf-syntax-ns#"
   xmlns:svg="http://www.w3.org/2000/svg"
   xmlns="http://www.w3.org/2000/svg"
   xmlns:sodipodi="http://sodipodi.sourceforge.net/DTD/sodipodi-0.dtd"
   xmlns:inkscape="http://www.inkscape.org/namespaces/inkscape"
   width="256"
   height="256"
   viewBox="0 0 256 256"
   id="svg3357"
   version="1.1"
   inkscape:version="0.91 r13725"
   sodipodi:docname="zerg.svg">
  <defs
     id="defs3359" />
  <sodipodi:namedview
     id="base"
     pagecolor="#ffffff"
     bordercolor="#666666"
     borderopacity="1.0"
     inkscape:pageopacity="0.0"
     inkscape:pageshadow="2"
     inkscape:zoom="0.98994949"
     inkscape:cx="196.68027"
     inkscape:cy="236.47501"
     inkscape:document-units="px"
     inkscape:current-layer="layer1"
     showgrid="false"
     inkscape:window-width="1366"
     inkscape:window-height="705"
     inkscape:window-x="-8"
     inkscape:window-y="-8"
     inkscape:window-maximized="1"
     units="px" />
  <metadata
     id="metadata3362">
    <rdf:RDF>
      <cc:Work
         rdf:about="">
        <dc:format>image/svg+xml</dc:format>
        <dc:type
           rdf:resource="http://purl.org/dc/dcmitype/StillImage" />
        <dc:title></dc:title>
      </cc:Work>
    </rdf:RDF>
  </metadata>
  <g
     inkscape:label="Layer 1"
     inkscape:groupmode="layer"
     id="layer1"
     transform="translate(0,-796.36218)">
    <path
       style="fill:#401140;fill-opacity:1"
       d="m 74.901063,1051.8143 c -19.417461,-2.5029 -37.473232,-16.5789 -43.41558,-35.4129 12.164894,10.8263 26.999094,23.5789 44.473403,19.6365 12.610063,-2.5778 21.829735,-19.0153 12.579127,-29.7532 -7.623018,-10.35848 -28.512643,-4.2649 -25.401979,9.6386 1.829564,5.8894 6.969726,15.4939 -2.238308,7.4246 -11.740369,-7.9078 -14.504583,-22.5992 -15.372373,-35.73452 9.79316,4.0134 22.086453,-7.3767 13.133583,-16.24505 -11.819151,-9.35833 -18.963934,9.91874 -19.627224,19.17768 -2.196265,2.29089 0.196378,21.00519 -3.625139,13.67839 -8.411367,-14.89862 -8.076879,-33.75936 -2.54626,-49.59529 9.569991,7.62818 29.681363,-8.83547 14.171136,-17.35363 -12.177102,-7.69441 -22.776534,6.29833 -25.717288,16.99135 -2.000496,4.5631 -4.46711,18.67594 -5.059228,5.58178 -1.315728,-17.18199 4.131522,-35.52893 17.747063,-46.77279 3.74895,11.1957 22.911825,9.61677 21.383692,-3.23488 -4.771487,-12.2223 -22.383376,-11.67786 -30.983608,-3.7956 -5.119871,1.10988 -13.103924,17.77894 -12.982204,14.26502 3.30989,-19.01913 14.910095,-37.72933 33.917418,-44.18582 5.704526,-3.08921 10.986609,-4.43513 7.513555,3.81413 -1.539358,18.39267 24.170829,9.18612 18.340252,-4.94902 -4.961393,-14.64476 -23.607957,-15.45201 -36.40443,-12.77915 -4.562931,0.72072 -18.034391,6.16292 -9.410274,-2.17373 13.560642,-15.96539 37.262476,-20.19056 56.96484,-15.46415 4.683816,3.20556 -10.155157,12.89844 0.313668,18.35422 7.713351,7.5857 23.131775,0.46183 19.080215,-10.93606 -3.097899,-19.04035 -22.699727,-31.17544 -40.897017,-32.37856 4.636343,-4.77255 20.259805,-5.79625 29.569328,-5.51929 15.426749,0.66845 31.716139,6.42232 41.792529,18.57251 -11.86667,2.98876 -18.6851,23.23492 -1.86061,23.37959 13.29845,1.91221 17.50487,-14.91399 17.22625,-25.34441 0.24818,-14.22033 -8.36931,-27.0409 -20.22696,-34.33862 25.19331,2.88775 47.79105,22.12573 53.47451,47.02598 -13.41056,-2.58574 -25.68246,15.10133 -8.61729,20.25041 14.51449,3.77639 21.49033,-14.24032 20.87912,-25.87488 0.87605,-7.49302 -2.6241,-17.53525 -1.56959,-22.96029 14.35062,12.17766 24.03834,30.28417 22.86322,49.43039 -0.77934,4.58941 2.38807,19.24547 -5.59382,12.96621 -13.88836,-10.01052 -18.18708,14.99646 -3.85883,15.73071 12.42699,0.95302 15.8267,-14.11679 17.9869,-23.62151 1.57782,-2.42222 1.71554,-20.78993 3.42794,-12.53381 4.79827,17.55304 8.73866,37.92743 -2.46954,53.93975 -2.80381,12.36391 -9.65415,-5.38744 -14.09858,1.39836 -10.38236,10.25457 7.90008,23.63575 15.47612,11.28479 8.62835,-8.51311 13.55793,-19.74533 19.34072,-30.2095 0.18698,27.21462 -12.89297,52.44311 -29.38769,73.3489 -11.6694,15.16603 -25.49658,28.4561 -39.65582,41.26089 -22.906,-2.1369 -45.71648,-11.04137 -61.30308,-28.48405 -15.088983,-15.66639 -24.673971,-40.29854 -15.385573,-61.25647 9.148213,-18.0549 39.478233,-22.44732 50.047363,-3.42772 7.05355,10.965 -0.10538,24.69376 -10.4731,30.47409 -7.49751,3.71379 5.6504,-14.87688 -4.16176,-17.58492 -15.29175,-9.91084 -23.18549,13.11596 -14.36833,23.62304 8.91918,16.58454 35.49953,11.79925 43.50423,-3.29535 10.08895,-18.13393 9.79899,-44.85671 -8.38612,-57.91207 -16.71501,-13.91044 -41.89205,-9.11656 -58.604776,2.17627 -15.267457,9.97233 -22.166139,28.77371 -20.420739,46.47865 0.779058,20.48217 6.763626,42.23272 23.294849,55.64429 14.217406,14.59744 33.459706,22.31834 51.649556,30.54934 -9.07575,8.5413 -21.43152,14.4089 -32.9098,19.7432 -13.51852,5.6794 -28.406287,9.2639 -43.117667,7.2876 z"
       id="path3346"
       inkscape:connector-curvature="0" />
  </g>
</svg>
