<svg height="512" width="512" xmlns="http://www.w3.org/2000/svg">
    <style>
        .a {
            fill: #bbb;
            opacity: 0.75;
        }
    </style>
    <path class="a" d="m286.7 205.8c-0.5 2.3-1.9 4.3-3.9 5.5-2 1.2-4.5 1.6-6.7 1-0.1 0-0.4-0.1-0.6 0.2l-3.9 5.3c-0.1 0.2-0.1 0.4 0 0.6 1.3 2 1.7 4.4 1.1 6.7-0.5 2.3-2 4.2-4 5.4-0.2 0.1-0.3 0.3-0.3 0.5l1 6.5c0 0.2 0.2 0.4 0.4 0.4 2.3 0.5 4.3 1.9 5.5 3.9 1.2 2 1.6 4.4 1 6.7 0 0.2 0 0.4 0.2 0.6l5.3 3.9c0.3 0.2 0.5 0.1 0.6 0 1-0.6 2.1-1.1 3.3-1.3 1.1-0.2 2.3-0.1 3.4 0.1 2.3 0.5 4.3 2 5.4 4 0.1 0.2 0.3 0.3 0.5 0.3l6.5-1c0.2 0 0.4-0.2 0.4-0.4 0.5-2.3 1.9-4.3 3.9-5.5 2-1.2 4.4-1.6 6.7-1 0.1 0 0.4 0.1 0.6-0.2l3.9-5.3c0.1-0.2 0.1-0.4 0-0.6-1.3-2-1.7-4.4-1.1-6.7 0.5-2.3 2-4.2 4-5.4 0.2-0.1 0.3-0.3 0.3-0.5l-1-6.5c0-0.2-0.2-0.4-0.4-0.4-2.3-0.5-4.3-1.9-5.5-3.9-1.2-2-1.6-4.4-1-6.7 0.1-0.2 0-0.4-0.2-0.6l-5.3-3.9c-0.3-0.2-0.5-0.1-0.6 0-1.9 1.3-4.4 1.7-6.7 1.1-2.3-0.5-4.2-2-5.4-4-0.1-0.2-0.3-0.3-0.5-0.3l-6.5 1c-0.2 0-0.4 0.2-0.4 0.4zm20.3 22.5c1.1 7-3.7 13.5-10.7 14.6-7 1.1-13.5-3.7-14.6-10.7-1.1-7 3.7-13.5 10.7-14.6 7-1.1 13.5 3.7 14.6 10.7zm-124.3-0.1c4.8 1.1 9 4.1 11.6 8.3 2.6 4.2 3.3 9.4 2.1 14.1-0.1 0.4 0.1 0.9 0.4 1.2l11.2 8.2c0.6 0.4 1 0.2 1.3 0 2.1-1.4 4.5-2.3 7-2.7 2.4-0.4 4.8-0.3 7.1 0.3 4.8 1.2 9 4.3 11.5 8.5 0.2 0.4 0.7 0.6 1.1 0.5l13.7-2.2c0.5-0.1 0.8-0.4 0.9-0.9 1.1-4.8 4.1-9.1 8.3-11.6 4.1-2.5 9.1-3.3 13.7-2.2 0-0.6 0-1.2 0.2-1.8 0.2-0.8 0.1-1.7-0.3-2.4-0.4-0.7-1.2-1.2-2-1.4-2.5-0.6-4.3-2.5-4.7-5l-1-6.5c-0.4-2.5 0.7-4.9 2.9-6.1 0.8-0.4 1.3-1.2 1.5-2 0.2-0.8 0-1.7-0.4-2.4-1.3-2.1-1.2-4.8 0.2-6.8l3.9-5.3c1-1.3 2.4-2.2 3.9-2.4l1.1-0.2 1.3 0.3c1 0.3 1.8 0.1 2.5-0.3 0.7-0.4 1.3-1.2 1.4-2 0.5-2.3 2.3-4 4.6-4.5l-0.7-4.3c-0.1-0.5-0.4-0.8-0.9-0.9-4.8-1.1-9.1-4.1-11.6-8.3-2.6-4.2-3.3-9.4-2.1-14.1 0.1-0.4-0.1-0.9-0.4-1.2l-11.2-8.2c-0.6-0.5-1-0.2-1.3 0-4.1 2.6-9.3 3.5-14.1 2.4-4.8-1.1-8.9-4.3-11.4-8.5-0.2-0.4-0.7-0.6-1.1-0.5l-13.7 2.2c-0.5 0.1-0.8 0.4-0.9 0.9-1.1 4.8-4.1 9.1-8.3 11.6-4.2 2.6-9.4 3.3-14.1 2.1-0.3-0.1-0.7-0.2-1.2 0.4l-8.2 11.2c-0.3 0.4-0.3 0.9 0 1.3 2.7 4.1 3.5 9.3 2.4 14.1-1.2 4.8-4.3 8.9-8.5 11.4-0.4 0.2-0.6 0.7-0.5 1.1l2.2 13.7c0.1 0.5 0.4 0.8 0.9 0.9zm47.5-42.9c14.7-2.3 28.6 7.8 30.9 22.5 2.3 14.7-7.8 28.6-22.5 30.9-14.7 2.3-28.6-7.8-30.9-22.5-2.3-14.7 7.8-28.6 22.5-30.9zM331.1 97.8H170.9c-10 0-18.2 8.2-18.2 18.2v149.8c0 10 8.2 18.2 18.2 18.2h160.2c10 0 18.2-8.2 18.2-18.2V116c0-10-8.2-18.2-18.2-18.2zm6.1 168c0 3.4-2.7 6.1-6.1 6.1H170.9c-3.3 0-6.1-2.7-6.1-6.1V147.5H337.1V265.7ZM441.6 122.7c0-2.3-0.8-4.7-2.4-6.5L340.5 3.4c0 0 0 0-0.1-0.1C339.8 2.7 339.2 2.2 338.4 1.7 338.2 1.5 338 1.4 337.8 1.3 337.2 1 336.5 0.7 335.8 0.5 335.6 0.4 335.5 0.3 335.3 0.3 334.5 0.1 333.7 0 333 0H90.4C79.3 0 70.3 9 70.3 20.1V491.9C70.3 503 79.3 512 90.4 512H421.6c11.1 0 20.1-9 20.1-20.1V123.8c0-0.4-0.1-0.8-0.1-1.1zM186.5 474.2c-9.1 7.2-24.2 11.3-49 11.3-13.9 0-24.2-0.9-30.5-1.8V361.3c7.4-1.5 22.4-2.6 36.4-2.6 17.2 0 27.7 1.7 36.8 7 8.7 4.6 15 13.1 15 24.4 0 11.1-6.5 21.4-20.5 26.6v0.4c14.2 3.9 24.8 14.6 24.8 30.7 0 11.3-5.2 20.1-12.9 26.4zm105.7 10-9.6-32h-35.7l-8.9 32H208.9l38.1-124.6h37l38.6 124.6zM410.1 383.3h-34V484.2H347.9V383.3h-33.4v-23.7h95.7zM90.4 340.9V20.1H322.9V122.8c0 5.5 4.5 10 10 10h88.7l0 208.1zm54.2 88.2h-9.6v35.1c2.8 0.4 6.1 0.4 10.9 0.4 12.8 0 24-4.8 24-17.9 0-12.6-11.3-17.6-25.3-17.6zm22.4-35.5c0-9.4-7.2-14.4-20-14.4-6.1 0-9.6 0.4-12 0.7v29h9.2c14.8 0 22.7-6.1 22.7-15.3zm97.6-12.9h-0.4c-1.8 7.4-3.7 16.8-5.7 24l-7.4 26.4h27.5l-7.8-26.4c-2.2-7.4-4.4-16.6-6.3-24z" />
</svg>
