<svg height="512" width="512" xmlns="http://www.w3.org/2000/svg">
    <style>
        .a {
            fill: #bbb;
            opacity: 0.75;
        }
    </style>
    <path class="a" d="M407.4 232.8H104.7c-3.4 0-6.2 1.1-8.4 3.3-2.2 2.2-3.3 5-3.3 8.4v23.3c0 3.4 1.1 6.2 3.3 8.4 2.2 2.2 5 3.3 8.4 3.3h302.6c3.4 0 6.2-1.1 8.4-3.3 2.2-2.2 3.3-5 3.3-8.4v-23.3c0-3.4-1.1-6.2-3.3-8.4-2.2-2.2-5-3.3-8.4-3.3zM481.4 30.7C460.9 10.2 436.2 0 407.4 0H104.7C75.9 0 51.2 10.2 30.7 30.7 10.2 51.2 0 75.9 0 104.7V407.3C0 436.1 10.2 460.8 30.7 481.3 51.2 501.8 75.9 512 104.7 512h302.6c28.8 0 53.5-10.2 74-30.7 20.5-20.5 30.7-45.2 30.7-74V104.7c0.1-28.8-10.1-53.5-30.6-74zM465.6 407.3c0 16.1-5.7 29.7-17.1 41.1-11.3 11.3-25.1 17.1-41.1 17.1H104.7c-16.1 0-29.7-5.7-41.1-17.1C52.2 437.1 46.5 423.3 46.5 407.3V104.7c0-16.1 5.7-29.7 17.1-41.1C75 52.2 88.8 46.6 104.7 46.6h302.6c16.1 0 29.7 5.7 41.1 17.1 11.3 11.3 17.1 25.1 17.1 41.1v302.6z" />
</svg>
