<svg height="512" width="512" xmlns="http://www.w3.org/2000/svg">
    <style>
        .a {
            fill: #bbb;
            opacity: 0.75;
        }
    </style>
    <path class="a" d="m359.2 386.1c-5.2 0-8.7 0.6-10.6 1l0 33.4c2.2 0.5 4.8 0.7 8.6 0.7 13.7 0 22-6.9 22-18.5 0-10.3-7.3-16.5-20-16.5zm-97.6 0c-5.2 0-8.7 0.6-10.6 1l0 33.4c2.2 0.5 4.8 0.7 8.6 0.7 13.6 0 22-6.9 22-18.5 0-10.3-7.3-16.5-20-16.5zM441.6 122.7c0-2.3-0.7-4.6-2.4-6.5L340.5 3.4c0 0-0.1 0-0.1-0.1C339.8 2.7 339.1 2.1 338.5 1.7 338.3 1.6 338 1.4 337.8 1.3 337.2 0.9 336.5 0.7 335.8 0.5 335.7 0.4 335.5 0.4 335.3 0.3 334.5 0.1 333.7 0 333 0l-242.6 0c-11.1 0-20.1 9-20.1 20.1l0 471.8C70.3 503 79.3 512 90.4 512l331.3 0c11.1 0 20.1-9 20.1-20.1l0-368.1c0-0.4-0.1-0.7-0.1-1.1zM183.6 461.4c7.7 0 16.3-1.7 21.3-3.7l3.9 20c-4.7 2.3-15.3 4.9-29.1 4.9-39.1 0-59.3-24.4-59.3-56.6 0-38.7 27.5-60.1 61.8-60.1 13.3 0 23.3 2.7 27.9 5l-5.2 20.4c-5.2-2.2-12.5-4.2-21.5-4.2-20.4 0-36.2 12.3-36.2 37.5 0 22.7 13.5 36.9 36.3 36.9zm112.9-32.4c-8.7 8.3-21.7 11.9-36.8 11.9-3.3 0-6.4-0.2-8.7-0.5l0 40.5-25.4 0 0-111.7c7.9-1.3 19-2.3 34.6-2.3 15.8 0 27.1 3.1 34.6 9.1 7.3 5.7 12.1 15.2 12.1 26.2 0.1 11.1-3.6 20.5-10.3 26.8zm97.6 0c-8.7 8.3-21.7 11.9-36.8 11.9-3.3 0-6.4-0.2-8.7-0.5l0 40.5-25.4 0 0-111.7c7.9-1.3 19-2.3 34.6-2.3 15.8 0 27.1 3.1 34.6 9.1 7.3 5.7 12.1 15.2 12.1 26.2 0.1 11.1-3.6 20.5-10.3 26.8zm-303.8-88 0-320.9 232.6 0 0 102.7c0 5.6 4.5 10 10 10l88.7 0 0 208-331.3 0zM237.9 274.4c-7.4 3.3-21.7 6.1-37.6 6.1-43.8 0-71.8-26.6-71.8-69.3 0-39.6 27.1-72 77.6-72 11.1 0 23.2 2 32.2 5.3l-6.7 31.3c-5-2.2-12.5-4.2-23.5-4.2-22.2 0-36.6 15.8-36.3 37.9 0 24.9 16.6 37.9 37.2 37.9 9.9 0 17.8-1.7 24.1-4.2l4.9 31zm51.8-95.7 0 25.5 24.4 0 0 11-24.4 0 0 25.7-11.4 0 0-25.7-24.4 0 0-11 24.4 0 0-25.5 11.4 0zm69.5 0 0 25.5 24.4 0 0 11-24.4 0 0 25.7-11.4 0 0-25.7-24.4 0 0-11 24.4 0 0-25.5 11.4 0z" />
</svg>
