<svg height="512" width="512" xmlns="http://www.w3.org/2000/svg">
    <style>
        .a {
            fill: #bbb;
            opacity: 0.75;
        }
    </style>
    <path class="a" d="m441.6 122.7c0-2.3-0.7-4.6-2.4-6.5L340.5 3.4c0 0-0.1 0-0.1-0.1-0.6-0.7-1.3-1.2-2-1.7-0.2-0.2-0.5-0.3-0.7-0.4-0.7-0.4-1.3-0.7-2-0.8-0.2-0.1-0.4-0.1-0.6-0.2-0.7-0.2-1.5-0.3-2.2-0.3l-242.6 0c-11.1 0-20.1 9-20.1 20.1l0 471.8c0 11.1 9 20.1 20.1 20.1l331.3 0c11.1 0 20.1-9 20.1-20.1l0-368.1c0-0.4-0.1-0.7-0.1-1.1zM175.5 466.8c8.3 0 17.6-1.8 23-4l4.2 21.5c-5 2.5-16.5 5.2-31.2 5.2-42.1 0-63.8-26.2-63.8-60.9 0-41.6 29.7-64.7 66.5-64.7 14.3 0 25.1 2.9 30 5.4l-5.6 21.8c-5.6-2.3-13.4-4.5-23.1-4.5-21.8 0-38.9 13.2-38.9 40.2-0.1 24.5 14.4 39.9 38.9 39.9zm75 22.8c-13.9 0-27.6-3.6-34.5-7.4l5.6-22.8c7.4 3.8 18.8 7.6 30.5 7.6 12.6 0 19.3-5.2 19.3-13.2 0-7.6-5.8-11.9-20.5-17.2-20.3-7.1-33.5-18.2-33.5-36 0-20.8 17.4-36.7 46.1-36.7 13.8 0 23.9 2.9 31 6.1l-6.1 22.2c-4.9-2.3-13.6-5.8-25.5-5.8-11.9 0-17.7 5.4-17.7 11.7 0 7.8 6.9 11.2 22.6 17.2 21.5 8 31.6 19.1 31.6 36.3 0.1 20.5-15.7 37.8-49.1 37.8zm97.6 0c-13.9 0-27.6-3.6-34.5-7.4l5.6-22.8c7.4 3.8 18.8 7.6 30.5 7.6 12.6 0 19.3-5.2 19.3-13.2 0-7.6-5.8-11.9-20.5-17.2-20.3-7.1-33.5-18.2-33.5-36 0-20.8 17.4-36.7 46.1-36.7 13.8 0 23.8 2.9 31 6.1l-6.1 22.2c-4.8-2.3-13.6-5.8-25.5-5.8-11.9 0-17.7 5.4-17.7 11.7 0 7.8 6.9 11.2 22.6 17.2 21.5 8 31.6 19.1 31.6 36.3 0 20.5-15.7 37.8-49.1 37.8zm73.5-148.7-331.3 0 0-320.8 232.6 0 0 102.7c0 5.6 4.5 10 10 10l88.7 0 0 208zM186.7 144.2c0 6.1 0.9 12.1 1.8 18.2 0.8 6.1 1.8 12.3 1.8 18.4 0 7.7-2.2 16.2-17.8 16.2l0 11.2c15.5 0 17.8 9.4 17.8 16.2 0 5.9-0.8 11.8-1.8 17.8-0.8 5.9-1.8 12-1.8 17.9 0 22.1 13.6 30 31.8 30l4.6 0 0-12-3.9 0c-12.3 0-17.3-6.8-17.3-19.1 0-5.3 0.7-10.3 1.6-15.8 0.8-5.2 1.6-10.7 1.6-16.6 0.2-14-5.9-21.5-15.8-23.9l0-0.5c9.9-2.6 16-9.7 15.8-23.7 0-5.9-0.7-11.2-1.5-16.6-0.8-5.3-1.6-10.5-1.6-15.5 0-11.8 4.4-18.9 17.3-18.9l3.9 0 0-12.1-4.6 0c-18.8 0.1-31.9 8.6-31.9 28.8zm126.7 36.5c0-6.1 0.8-12.3 1.8-18.4 0.8-6.1 1.8-12.1 1.8-18.2 0-20.2-13.4-28.7-32-28.7l-4.4 0 0 12.1 3.9 0c12.7 0.2 17.3 7 17.3 18.9 0 5-0.8 10.3-1.5 15.5-0.9 5.5-1.8 10.8-1.8 16.6 0 14 6.1 21 15.8 23.7l0 0.5c-9.7 2.4-15.8 9.9-15.8 23.9 0 5.9 0.8 11.4 1.8 16.6 0.7 5.5 1.5 10.5 1.5 15.8 0 12.3-5.3 18.9-17.6 19.1l-3.7 0 0 12.1 4.6 0c17.9 0 31.8-7.9 31.8-30 0-5.9-0.8-12.1-1.8-17.9-0.8-5.9-1.8-11.8-1.8-17.8 0-6.8 2.2-16.2 17.8-16.2l0-11.2c-15.5-0.1-17.7-8.6-17.7-16.4z" />
</svg>
