<svg height="512" width="512" xmlns="http://www.w3.org/2000/svg">
    <style>
        .a {
            fill: #bbb;
            opacity: 0.75;
        }
    </style>
    <path class="a" d="m384 227.6h-99.6v-99.6c0-4.2-1.4-7.6-4-10.3-2.6-2.6-6.1-4-10.3-4h-28.5c-4.2 0-7.6 1.4-10.3 4-2.6 2.6-4 6.1-4 10.3v99.6h-99.3c-4.2 0-7.6 1.4-10.3 4-2.6 2.6-4 6.1-4 10.3v28.5c0 4.2 1.4 7.6 4 10.3 2.6 2.6 6.1 4 10.3 4h99.6v99.6c0 4.2 1.4 7.6 4 10.3 2.6 2.6 6.1 4 10.3 4h28.5c4.2 0 7.6-1.4 10.3-4 2.6-2.6 4-6.1 4-10.3v-99.9h99.6c4.2 0 7.6-1.4 10.3-4 2.6-2.6 4-6.1 4-10.3v-28.5c0-4.2-1.4-7.6-4-10.3-2.6-2.6-6.1-4-10.3-4zM482.9 29.1C463.4 9.7 440.1 0 412.5 0H99.6C72.1 0 48.6 9.7 29.1 29.1 9.7 48.6 0 72.1 0 99.6V412.5c0 27.2 9.7 50.7 29.1 70.2C48.6 502.3 72.1 512 99.6 512H412.5c27.6 0 51.1-9.8 70.4-29.3C502.3 463.1 512 439.8 512 412.5V99.6C512 72.1 502.3 48.6 482.9 29.3ZM455.2 412.5c0 11.8-4.2 21.9-12.5 30.2-8.3 8.3-18.4 12.5-30.2 12.5H99.6c-11.8 0-21.9-4.2-30.2-12.5-8.3-8.3-12.5-18.4-12.5-30.2V99.6c0-11.8 4.2-21.9 12.5-30.2 8.3-8.3 18.4-12.5 30.2-12.5H412.5c11.8 0 21.9 4.2 30.2 12.5 8.3 8.3 12.5 18.4 12.5 30.2z" />
</svg>
