<svg height="512" width="512" xmlns="http://www.w3.org/2000/svg">
    <style>
        .a {
            fill: #bbb;
            opacity: 0.75;
        }
    </style>
    <path class="a" d="m351.4 224.6v0.3718l-59.49 25.47v16.92l76.97-35.23v-14.78l-76.97-35.23v17.01zm-103.1 49.17 34.3-116.1h-16.17l-34.3 116.1zm-27.98-6.414v-16.92l-58.19-25.47v-0.3718l58.19-25.47v-17.01l-76.97 35.79v13.76zm221.4-144.5c0-2.3-0.7-4.6-2.4-6.5l-98.7-112.8s-0.1 0-0.1-0.1c-0.6-0.7-1.3-1.2-2-1.7-0.2-0.1-0.5-0.3-0.7-0.4-0.7-0.4-1.3-0.7-2-0.8-0.2-0.1-0.4-0.1-0.6-0.2-0.7-0.2-1.6-0.3-2.3-0.3h-242.6c-11.1 0-20.1 9-20.1 20.1v471.8c0 11.1 9 20.1 20.1 20.1h331.3c11.1 0 20.1-9 20.1-20.1v-368.1c0-0.4-0.1-0.7-0.1-1.1zm-351.2-102.6h232.6v102.7c0 5.6 4.5 10 10 10h88.7v208h-331.3v-320.8zm77.4 444h-20.1v-38.4h-33.2v38.4h-20.3v-91.7h20.3v35.2h33.2v-35.2h20.1zm79.4-74.3h-24.4v74.3h-20.3v-74.3h-24v-17.4h68.5v17.4zm86.9 74.3-1.3-35c-0.4-11-0.8-24.4-0.8-37.6h-0.4c-2.8 11.7-6.5 24.7-9.9 35.5l-10.9 35.8h-15.7l-9.6-35.5c-2.9-10.8-5.9-23.8-8.1-35.8h-0.3c-0.6 12.4-0.9 26.5-1.6 37.9l-1.6 34.9h-18.7l5.7-91.7h26.9l8.7 30.6c2.8 10.6 5.6 22 7.5 32.8h0.4c2.5-10.6 5.6-22.7 8.5-32.9l9.6-30.5h26.3l4.9 91.7h-19.7v-0.1zm90.9 0h-55.7v-91.7h20.3v74.3h35.5v17.4z" />
</svg>
