<svg height="512" width="512" xmlns="http://www.w3.org/2000/svg">
    <style>
        .a {
            fill: #bbb;
            opacity: 0.75;
        }
    </style>
    <path class="a" d="m455.7 122.7c0-2.3-0.8-4.6-2.6-6.5L346.9 3.4c0 0-0.1 0-0.1-0.1-0.6-0.7-1.4-1.2-2.2-1.7-0.2-0.2-0.5-0.3-0.7-0.4-0.7-0.4-1.4-0.7-2.1-0.8-0.2-0.1-0.4-0.1-0.6-0.2C340.5 0.1 339.6 0 338.8 0l-261 0c-11.9 0-21.6 9-21.6 20.1l0 471.8c0 11.1 9.7 20.1 21.6 20.1L434.2 512c11.9 0 21.6-9 21.6-20.1l0-368.1c0-0.4-0.1-0.7-0.1-1.1zM232.2 436.7c0 35.3-18.2 47.7-47.5 47.7-6.9 0-16.1-1.1-22-3l3.4-22.7c4.2 1.3 9.5 2.2 15.4 2.2 12.7 0 20.6-5.4 20.6-24.7l0-78.1 30.1 0 0 78.5 0 0zm57.8 47.5c-15.2 0-30.3-3.7-37.8-7.5l6.1-23.2c8.1 3.9 20.6 7.7 33.5 7.7 13.9 0 21.2-5.3 21.2-13.5 0-7.7-6.3-12.2-22.4-17.5-22.2-7.2-36.6-18.6-36.6-36.6 0-21.2 19-37.4 50.5-37.4 15.1 0 26.2 3 34.1 6.2l-6.7 22.7c-5.4-2.4-14.9-5.9-27.9-5.9-13.1 0-19.4 5.6-19.4 12 0 7.9 7.5 11.4 24.8 17.5 23.6 8.1 34.7 19.5 34.7 37-0.2 20.8-17.4 38.5-54.1 38.5zm144.2-143.3-356.4 0 0-320.8 250.2 0 0 102.7c0 5.6 4.8 10 10.8 10l95.4 0 0 208zM155 117.9c0 8.6 6.6 15.7 14.8 15.7 2.3 0 4.2-2 4.2-4.5 0-2.4-1.9-4.5-4.2-4.5-3.5 0-6.4-3.1-6.4-6.9 0-3.8 2.9-6.9 6.4-6.9l0 0c0.8 0 8-0.2 8 6.1l0 170.8c0 7.3 5.6 13.4 12.5 13.4l22.3 0c0 0 0-0.1 0-0.1l114 0c9.1 0 16.5-7.9 16.5-17.6 0-8-5.1-14.8-12.1-16.9 0 0 0-0.1 0-0.1l0 0 0-151.1c0-7.3-5.6-13.4-12.5-13.4l-148.8 0c0 0 0 0 0 0-8.1 0-14.7 7.1-14.7 15.8zm57.1 165.7c0-3.4-1.1-6.3-2.7-8.7l106.2 0c4.5 0 8.1 3.9 8.1 8.6 0 4.7-3.6 8.6-8.1 8.6l-106.1 0c1.5-2.3 2.6-5.2 2.6-8.6zm-4.1-82 97.9 0 0 8.2-97.9 0 0-8.2zm0-29.5 97.9 0 0 8.2-97.9 0 0-8.2zm0-30.1 97.9 0 0 8.2-97.9 0 0-8.2z" />
</svg>
