<svg height="512" width="512" xmlns="http://www.w3.org/2000/svg">
    <style>
        .a {
            fill: #bbb;
            opacity: 0.75;
        }
    </style>
    <path class="a" d="m310.6 159.1c0.4-1.2 0.8-2.5 0.8-3.8 0-16.2-34.9-24.9-67.8-24.9-32.8 0-67.7 8.7-67.7 24.9 0 1.3 0.3 2.6 0.8 3.8l-0.2 0.3c-1.5 2.7-2.2 5.5-2.2 8.2v20c0 3.1 1 6 2.7 8.8l-0.2 0.4c-1.6 2.8-2.5 5.7-2.5 8.6v20c0 3 0.9 5.8 2.5 8.6l-0.1 0.1c-1.6 2.8-2.5 5.7-2.5 8.6v20c0 17.8 30.5 31.7 69.4 31.7 39 0 69.5-13.9 69.5-31.7v-20c0-2.8-0.8-5.7-2.5-8.6l-0.1-0.1c1.6-2.7 2.5-5.6 2.5-8.6v-20c0-2.8-0.8-5.7-2.5-8.6l-0.2-0.4c1.7-2.8 2.7-5.7 2.7-8.8v-20c0-2.7-0.8-5.5-2.2-8.2zm-5 103.5c0 11.5-25.4 24.3-62 24.3-36.5 0-62-12.8-62-24.2v-18.8c11.4 10.4 34.9 17.1 62 17.1 27.2 0 50.6-6.7 62-17.1zm0-37.2c0 11.5-25.4 24.3-62 24.3-36.5 0-62-12.8-62-24.2v-18.8c11.4 10.4 34.9 17.1 62 17.1 27.2 0 50.6-6.7 62-17.1zm0-37.8c0 11.5-25.4 24.3-62 24.3-36.5 0-62-12.8-62-24.2v-16.6c11.1 9.4 37 14.3 62 14.3 25.1 0 50.9-4.9 62-14.3zm136-64.9c0-2.3-0.8-4.7-2.4-6.5l-98.7-112.8s-0.1 0-0.1-0.1c-0.6-0.7-1.3-1.2-2-1.7-0.2-0.1-0.4-0.3-0.7-0.4-0.6-0.3-1.3-0.6-2-0.8-0.2-0.1-0.4-0.1-0.5-0.2-0.7-0.2-1.5-0.3-2.3-0.3h-242.6c-11.1 0-20.1 9-20.1 20.1v471.8c0 11.1 9 20.1 20.1 20.1h331.3c11.1 0 20.1-9 20.1-20.1v-368.1c0-0.4-0.1-0.7-0.1-1.1zm-304.6 354.8c-13.9 0-27.6-3.6-34.5-7.4l5.6-22.8c7.4 3.8 18.8 7.6 30.5 7.6 12.7 0 19.3-5.2 19.3-13.2 0-7.6-5.8-11.9-20.4-17.2-20.2-7-33.4-18.3-33.4-36 0-20.8 17.4-36.7 46.1-36.7 13.7 0 23.9 2.9 31.1 6.1l-6.1 22.2c-4.9-2.3-13.5-5.8-25.5-5.8-11.9 0-17.7 5.4-17.7 11.7 0 7.8 6.9 11.2 22.6 17.2 21.5 8 31.6 19.2 31.6 36.3 0 20.4-15.7 37.8-49.1 37.8zm171.8 19.1c-17.3-5.1-31.8-10.3-48.1-17.2-2.7-1.1-5.6-1.6-8.5-1.8-27.5-1.8-53.1-22-53.1-61.8 0-36.5 23.1-64 59.4-64 37.2 0 57.6 28.2 57.6 61.4 0 27.7-12.8 47.2-28.9 54.4v0.7c9.4 2.7 19.9 4.9 29.5 6.9zm101.6-20.9h-76.1v-121.8h27.7v98.7h48.4zm-320-134.8v-320.8h232.6v102.7c0 5.5 4.5 10 10 10h88.7v208.1zm167.5 32.9c-18.8 0-29.6 18.4-29.6 41.2-0.2 23.1 11 40.8 29.5 40.8 18.6 0 29.5-17.5 29.5-41.4 0-22.2-10.5-40.7-29.3-40.7z" />
</svg>
