<svg height="512" width="512" xmlns="http://www.w3.org/2000/svg">
    <style>
        .a {
            fill: #bbb;
            opacity: 0.75;
        }
    </style>
    <path class="a" d="m441.6 122.7c0-2.3-0.7-4.6-2.4-6.5L340.5 3.4c0 0-0.1 0-0.1-0.1-0.6-0.7-1.3-1.2-2-1.7-0.2-0.1-0.5-0.3-0.7-0.4-0.7-0.4-1.3-0.7-2-0.8-0.2-0.1-0.4-0.1-0.6-0.2C334.5 0.1 333.7 0 333 0l-242.6 0c-11.1 0-20.1 9-20.1 20.1l0 471.8C70.3 503 79.3 512 90.4 512l331.3 0c11.1 0 20.1-9 20.1-20.1l0-368.1c0-0.4-0.1-0.7-0.1-1.1zm-245.9 266.4-33.3 0 0 98.6-27.6 0 0-98.6-32.7 0 0-23.1 93.6 0 0 23.1zm82 98.6-11.1-22c-4.6-8.5-7.4-14.8-10.9-21.8l-0.4 0c-2.5 7.1-5.6 13.4-9.4 21.8l-10.1 22-31.4 0 35.3-61.5-33.9-60.1 31.6 0 10.7 22.2c3.6 7.4 6.3 13.4 9.2 20.3l0.4 0c2.9-7.8 5.2-13.2 8.3-20.3l10.3-22.2 31.4 0-34.3 59.4 36.2 62.4-31.9 0zm132.1-98.6-33.3 0 0 98.6-27.6 0 0-98.6-32.7 0 0-23.1 93.6 0 0 23.1 0 0zm-319.5-48.2 0-320.9 232.6 0 0 102.7c0 5.6 4.5 10 10 10l88.7 0 0 208-331.3 0zm71.8-203.1 111.4 0c3.7 0 6.7-3 6.7-6.7 0-3.7-3-6.7-6.7-6.7l-111.4 0c-3.7 0-6.7 3-6.7 6.7 0 3.7 3 6.7 6.7 6.7zm182.6 40.1-182.8 0c-3.7 0-6.7 3-6.7 6.7 0 3.7 3 6.7 6.7 6.7l182.8 0c3.7 0 6.7-3 6.7-6.7 0-3.7-3-6.7-6.7-6.7zm0 53.2-182.8 0c-3.7 0-6.7 3-6.7 6.7 0 3.7 3 6.7 6.7 6.7l182.8 0c3.7 0 6.7-3 6.7-6.7 0-3.7-3-6.7-6.7-6.7zm0 54.4-182.8 0c-3.7 0-6.7 3-6.7 6.7 0 3.7 3 6.7 6.7 6.7l182.8 0c3.7 0 6.7-3 6.7-6.7 0-3.7-3-6.7-6.7-6.7z" />
</svg>
