<svg height="512" width="512" xmlns="http://www.w3.org/2000/svg">
    <style>
        .a {
            fill: #bbb;
            opacity: 0.75;
        }
    </style>
    <path class="a" d="m337.8 241.6-33.9-46.6c-9.8-13.5-27.4-18.1-42.3-12.3l-1.4-1.9c10.2-12.4 11.2-30.5 1.4-44l-25.6-35.2c-11.7-16-34.2-19.6-50.2-7.9l-3.6 2.7c-16 11.7-19.6 34.2-7.9 50.3l25.6 35.2c9.5 13.1 26.3 17.9 40.9 12.9l1.8 2.5c-9.3 12.3-9.9 29.7-0.4 42.8l33.9 46.6c11.7 16 34.2 19.6 50.3 7.9l3.6-2.6c16.1-11.7 19.6-34.2 7.9-50.2zm-109.9-84.8c-5.4 3.9-6.5 11.4-2.6 16.7l7.8 10.7c-8.7 1.5-18-1.8-23.5-9.4l-25.6-35.2c-7.8-10.7-5.4-25.7 5.3-33.5l3.6-2.6c10.7-7.8 25.7-5.4 33.5 5.3l25.6 35.1c5.9 8.1 5.9 18.7 0.9 26.8l-8.2-11.3c-3.9-5.4-11.4-6.5-16.8-2.6zm94.9 125.4-3.6 2.6c-10.7 7.8-25.7 5.4-33.5-5.3l-33.9-46.6c-5.6-7.6-5.8-17.5-1.7-25.3l7.8 10.7c3.9 5.4 11.4 6.6 16.8 2.7s6.5-11.4 2.6-16.7l-8.2-11.3c9.2-2.3 19.3 1 25.2 9.1l33.9 46.6c7.8 10.7 5.4 25.7-5.3 33.5zm118.8-159.5c0-2.3-0.8-4.7-2.4-6.5l-98.7-112.8-0.1-0.1c-0.6-0.7-1.3-1.2-2-1.7-0.2-0.1-0.4-0.3-0.7-0.4-0.6-0.3-1.3-0.6-2-0.8-0.2-0.1-0.4-0.1-0.5-0.2-0.8-0.2-1.5-0.3-2.3-0.3h-242.6c-11.1 0-20.1 9-20.1 20.1v471.8c0 11.1 9 20.1 20.1 20.1h331.3c11.1 0 20.1-9 20.1-20.1v-368.1c0-0.4-0.1-0.7-0.1-1.1zm-261.3 357.1h-71.7v-114.8h26.1v93h45.7zm110.4 0h-27.2l-24.5-44.3c-6.8-12.3-14.3-27.1-19.9-40.5l-0.5 0.2c0.7 15.2 1 31.3 1 50.1v34.6h-23.8v-114.8h30.3l23.9 42.1c6.8 12.1 13.6 26.4 18.7 39.4h0.5c-1.7-15.2-2.2-30.7-2.2-47.9v-33.6h23.9v114.8zm86.2 0-28.1-49.6-9.9 12.1v37.5h-25.7v-114.8h25.7v50.8h0.5c2.6-4.4 5.3-8.5 7.8-12.6l26.1-38.2h31.9l-38 48.9 40 65.9zm-286.5-138.9v-320.8h232.6v102.7c0 5.5 4.5 10 10 10h88.7v208.1z" />
</svg>
