<svg xmlns="http://www.w3.org/2000/svg" width="512" height="512">
    <g fill="#bbb">
        <path d="M442 123c0-3-1-5-3-7L341 3h-1a10 10 0 0 0-4-3h-1H90C79 0 70 9 70 20v472c0 11 9 20 20 20h332c11 0 20-9 20-20V124v-1zM187 486l-11-22-11-23h-1c-2 8-5 14-9 23l-11 22h-32l36-63-35-61h33l11 23 9 20h1c2-8 5-13 8-20l11-23h32l-35 61 37 63zm126 0h-78V362h28v101h50zm47 2c-15 0-29-3-36-7l6-24c8 4 19 8 31 8 13 0 20-5 20-13s-6-13-21-18c-21-7-34-19-34-37 0-21 18-37 47-37 14 0 25 3 32 6l-6 23c-5-3-14-6-26-6-13 0-19 5-19 12 0 8 7 11 24 17 22 9 32 20 32 38 0 20-16 38-50 38zM90 341V20h233v103c0 5 4 10 10 10h89v208H90z"/>
        <path d="M286 129H119v155h255V129zm0 75h-79v-33h79zm-162-70h78v32h-78zm0 37h78v33h-78zm0 38h78v33h-78zm0 70v-32h78v32zm83 0v-32h79v32zm162 0h-78v-32h78zm0-75h-78v-33h78zm-78-38v-32h78v32z"/>
    </g>
</svg>
