<svg xmlns="http://www.w3.org/2000/svg" width="512" height="512">
    <g fill="#bbb">
        <path d="M442 123c0-3-1-5-3-7L341 3h-1a10 10 0 0 0-4-3h-1H90C79 0 70 9 70 20v472c0 11 9 20 20 20h332c11 0 20-9 20-20V124v-1zM226 487h-94v-15l58-84h-53v-23h89v16l-57 82v1h57v23zm45 0h-27V365h27zm101-56c-10 9-24 13-40 13l-9-1v44h-28V366l38-2c17 0 29 3 37 10 8 6 13 16 13 28s-4 22-11 29zM90 341V20h120v-3h31v3h82v103c0 5 4 10 10 10h89v208z"/>
        <path d="M334 385l-11 1v36h9c14 0 23-7 23-19s-7-18-21-18zM241 37h30v13h-30zM210 20h31v10h-31zM210 56h31v13h-31zM241 76h30v13h-30zM241 116h30v13h-30zM210 96h31v13h-31zM241 139c-22 0-32 17-32 39l-7 65a39 39 0 1 0 78 0l-7-65c0-22-11-39-32-39zm13 126h-26v-54h26z"/>
    </g>
</svg>
